<svg width="81" height="80" viewBox="0 0 81 80" fill="none" xmlns="http://www.w3.org/2000/svg">
<g clip-path="url(#clip0)">
<path d="M17.7049 30.32C17.686 30.32 17.6678 30.3272 17.6542 30.3403C17.6405 30.3533 17.6324 30.3711 17.6315 30.39C17.6315 31.71 16.5649 32.78 15.2549 32.78C15.2454 32.78 15.236 32.7819 15.2273 32.7856C15.2186 32.7894 15.2107 32.7948 15.2041 32.8017C15.1976 32.8085 15.1925 32.8166 15.1892 32.8255C15.1859 32.8344 15.1844 32.8439 15.1849 32.8533C15.1849 32.8933 15.2182 32.9233 15.2549 32.9233C16.5682 32.9233 17.6315 33.9967 17.6315 35.3167C17.6315 35.3567 17.6649 35.3867 17.7049 35.3867C17.7415 35.3867 17.7749 35.3533 17.7749 35.3167C17.7766 34.6863 18.0274 34.0821 18.4725 33.6357C18.9176 33.1893 19.5211 32.9368 20.1515 32.9333C20.1705 32.9333 20.1888 32.9258 20.2022 32.9123C20.2156 32.8989 20.2232 32.8807 20.2232 32.8617C20.2232 32.8427 20.2156 32.8244 20.2022 32.811C20.1888 32.7976 20.1705 32.79 20.1515 32.79C19.5191 32.7874 18.9136 32.5338 18.468 32.0851C18.0224 31.6363 17.7731 31.0291 17.7749 30.3967V30.39C17.775 30.3808 17.7733 30.3716 17.7699 30.363C17.7664 30.3544 17.7613 30.3466 17.7549 30.34C17.7413 30.3272 17.7235 30.3201 17.7049 30.32ZM5.39486 32.0733L0.484863 44.8733H2.08486L3.2682 41.8H9.2082L10.3882 44.8733H11.9915L7.08486 32.0733H5.39486ZM12.9415 32.08V44.8733H14.5782V32.08H12.9415ZM20.8582 32.08V44.8733H28.9015V43.2H22.5282V39.2333H27.7849V37.6433H22.5282V33.7567H28.4382V32.0833L20.8582 32.08ZM6.2382 34.0533L8.56486 40.12H3.91153L6.2382 34.0533ZM55.2015 35.3933C54.0157 35.3958 52.8713 35.8295 51.9815 36.6133V35.6667H50.3449V44.8767H51.9782C51.9849 43.2867 51.9782 41.6933 51.9849 40.1C52.0283 39.2755 52.3859 38.4989 52.9841 37.9298C53.5824 37.3607 54.3758 37.0423 55.2015 37.04V35.3933ZM69.1349 35.4167C68.9582 35.4167 68.7849 35.4267 68.6082 35.45C67.5582 35.5533 66.5882 36.0333 66.0982 36.7067C65.7597 37.1496 65.5938 37.7005 65.6315 38.2567C65.6549 38.9233 65.8515 39.4467 66.4082 39.91C67.0215 40.4 67.8082 40.5767 68.5982 40.7733C69.6349 40.9967 70.0182 41.09 70.4182 41.3933C70.6849 41.6267 70.8615 41.8167 70.8715 42.2933C70.8715 43.1267 70.1349 43.5333 69.4715 43.66C68.9172 43.7729 68.3421 43.7249 67.8141 43.5218C67.2861 43.3186 66.8272 42.9687 66.4915 42.5133L65.2549 43.4733C66.3549 44.7467 67.8449 45.1567 68.8882 45.14C70.6882 45.1067 71.8582 44.4167 72.3182 43.36C72.5382 42.85 72.5282 42.33 72.5282 42.0933C72.5314 41.7422 72.4527 41.3951 72.2982 41.0797C72.1437 40.7643 71.9177 40.4893 71.6382 40.2767C70.8782 39.6867 69.6949 39.5167 69.5182 39.47C68.0615 39.21 67.3249 38.8167 67.1949 38.3333C67.0515 37.6933 67.5349 37.1667 68.1849 36.9633C68.6973 36.7926 69.2508 36.7902 69.7647 36.9563C70.2786 37.1224 70.726 37.4484 71.0415 37.8867L72.2649 37.0633C71.9106 36.5609 71.4421 36.1496 70.898 35.8634C70.3539 35.5771 69.7496 35.424 69.1349 35.4167ZM77.0915 35.4167C76.9182 35.4167 76.7415 35.4267 76.5682 35.45C75.5149 35.5533 74.5449 36.0333 74.0582 36.7067C73.7197 37.1496 73.5538 37.7005 73.5915 38.2567C73.6115 38.9233 73.8082 39.4467 74.3682 39.91C74.9782 40.4 75.7682 40.5767 76.5582 40.7733C77.5915 40.9967 77.9782 41.09 78.3749 41.3933C78.6449 41.6267 78.8215 41.8167 78.8282 42.2933C78.8315 43.1267 78.0915 43.5333 77.4282 43.66C76.8738 43.7729 76.2988 43.7249 75.7708 43.5218C75.2428 43.3186 74.7839 42.9687 74.4482 42.5133L73.2115 43.4733C74.3115 44.7467 75.8015 45.1567 76.8449 45.14C78.6482 45.1067 79.8149 44.4167 80.2782 43.36C80.4949 42.85 80.4849 42.33 80.4849 42.0933C80.4881 41.7422 80.4093 41.3951 80.2548 41.0797C80.1003 40.7643 79.8743 40.4893 79.5949 40.2767C78.8382 39.6867 77.6515 39.5167 77.4749 39.47C76.0182 39.21 75.2815 38.8167 75.1549 38.3333C75.0115 37.6933 75.4915 37.1667 76.1449 36.9633C76.6573 36.7926 77.2108 36.7902 77.7247 36.9563C78.2386 37.1224 78.686 37.4484 79.0015 37.8867L80.2249 37.0633C79.87 36.5606 79.401 36.1492 78.8563 35.863C78.3117 35.5767 77.7068 35.4238 77.0915 35.4167ZM44.2915 35.4233C43.1993 35.4233 42.1388 35.7904 41.2803 36.4656C40.4219 37.1409 39.8154 38.0852 39.5582 39.1467C39.4668 39.5028 39.4208 39.869 39.4215 40.2367V49.68H41.0582V43.6367C41.6249 44.2367 42.6815 45.0367 44.2582 45.15C45.0493 45.1586 45.8304 44.9725 46.5326 44.608C47.2348 44.2435 47.8366 43.7119 48.2849 43.06C48.7947 42.3309 49.0945 41.4758 49.1516 40.588C49.2086 39.7002 49.0207 38.8137 48.6083 38.0254C48.1959 37.2371 47.5749 36.5772 46.8131 36.1178C46.0513 35.6583 45.1778 35.4169 44.2882 35.42L44.2915 35.4233ZM60.3049 35.4233C59.4912 35.4316 58.6929 35.6455 57.984 36.045C57.2752 36.4446 56.6788 37.0169 56.2505 37.7087C55.8221 38.4005 55.5755 39.1893 55.5338 40.002C55.492 40.8146 55.6563 41.6246 56.0115 42.3567C56.8615 44.1233 58.7149 45.2567 60.7182 45.1333C61.3657 45.0906 61.9981 44.9181 62.5776 44.626C63.1571 44.334 63.6719 43.9284 64.0915 43.4333L62.8815 42.4633C62.4422 42.9853 61.8486 43.3546 61.1862 43.5181C60.5238 43.6816 59.8267 43.6309 59.1949 43.3733C58.7028 43.1751 58.2646 42.8635 57.9159 42.4638C57.5672 42.0641 57.3178 41.5877 57.1882 41.0733H64.6515L64.6582 39.65C64.6346 38.5144 64.1643 37.434 63.3494 36.6428C62.5345 35.8516 61.4406 35.4134 60.3049 35.4233ZM29.6382 35.69L33.1782 40.28L29.6382 44.8733H31.5749L34.1715 41.5067L36.7649 44.8733H38.7015L35.1615 40.28L38.7015 35.6867H36.7649L34.1715 39.0533L31.5749 35.6867L29.6382 35.69ZM16.8882 35.74V44.8733H18.5215V35.74H16.8882ZM44.3315 36.9733C44.7584 36.9775 45.18 37.0671 45.5718 37.2367C45.9635 37.4063 46.3173 37.6526 46.6123 37.9611C46.9074 38.2695 47.1378 38.6338 47.2899 39.0327C47.4421 39.4315 47.5129 39.8567 47.4982 40.2833C47.5322 41.0998 47.2536 41.8986 46.7191 42.5167C46.1845 43.1348 45.4344 43.5259 44.6215 43.61C43.8457 43.6887 43.0679 43.482 42.4335 43.0286C41.7991 42.5752 41.3516 41.9061 41.1749 41.1467C40.9282 39.8733 41.1749 38.66 42.1982 37.75C42.7903 37.2388 43.5493 36.9625 44.3315 36.9733ZM60.2982 37.0233C60.9859 37.0243 61.6481 37.2835 62.1537 37.7496C62.6593 38.2157 62.9714 38.8547 63.0282 39.54H57.1615C57.3199 38.8268 57.7166 38.1889 58.2862 37.7314C58.8558 37.2739 59.5643 37.0241 60.2949 37.0233H60.2982Z" fill="black"/>
</g>
<defs>
<clipPath id="clip0">
<rect width="80" height="80" fill="white" transform="translate(0.484863)"/>
</clipPath>
</defs>
</svg>
