<svg width="81" height="80" viewBox="0 0 81 80" fill="none" xmlns="http://www.w3.org/2000/svg">
<g clip-path="url(#clip0)">
<path d="M6.50151 41.3433C6.26818 41.0233 6.02152 40.76 6.02152 40.1633V38.1833C6.02152 37.34 6.08152 36.57 5.46151 35.99C4.97485 35.5233 4.16485 35.3567 3.54485 35.3567C2.33485 35.3567 0.981515 35.81 0.698182 37.3067C0.668182 37.4633 0.784848 37.5467 0.888182 37.5733L2.12152 37.7067C2.23818 37.7 2.32152 37.5867 2.34485 37.4733C2.45152 36.9567 2.88152 36.7067 3.36818 36.7067C3.63152 36.7067 3.92818 36.8067 4.08152 37.0367C4.26151 37.3 4.23818 37.6567 4.23818 37.96V38.1267C3.49818 38.2067 2.53485 38.2633 1.84152 38.5667C1.42916 38.7321 1.07773 39.0205 0.835003 39.3926C0.592276 39.7648 0.470019 40.2026 0.484848 40.6467C0.484848 41.97 1.31818 42.63 2.39152 42.63C3.29818 42.63 3.79152 42.4167 4.49152 41.7067C4.72152 42.04 4.79485 42.2067 5.21818 42.5567C5.2657 42.5821 5.3198 42.5925 5.37335 42.5865C5.4269 42.5806 5.4774 42.5585 5.51818 42.5233L6.49818 41.6833C6.60485 41.5967 6.58485 41.46 6.50151 41.3433ZM4.23485 39.42C4.23485 39.92 4.24818 40.33 4.00151 40.7733C3.79818 41.13 3.47485 41.35 3.11818 41.35C2.62818 41.35 2.34485 40.9767 2.34485 40.4267C2.34485 39.3433 3.31485 39.1467 4.23818 39.1467L4.23485 39.42ZM23.1915 41.3433C22.9582 41.0233 22.7115 40.76 22.7115 40.1633V38.1833C22.7115 37.34 22.7715 36.57 22.1515 35.99C21.6615 35.5233 20.8515 35.3567 20.2348 35.3567C19.0215 35.3567 17.6682 35.81 17.3882 37.3067C17.3549 37.4633 17.4748 37.55 17.5782 37.5733L18.8115 37.7067C18.9249 37.7 19.0115 37.5867 19.0315 37.4733C19.1382 36.9567 19.5715 36.7067 20.0548 36.7067C20.3182 36.7067 20.6149 36.8067 20.7682 37.0367C20.9482 37.3 20.9249 37.6567 20.9249 37.96V38.1267C20.1882 38.21 19.2215 38.2633 18.5315 38.5667C18.1182 38.7311 17.7658 39.0192 17.5224 39.3915C17.279 39.7638 17.1565 40.2021 17.1715 40.6467C17.1715 41.97 18.0049 42.63 19.0782 42.63C19.9848 42.63 20.4782 42.4167 21.1782 41.7067C21.4082 42.04 21.4848 42.2067 21.9082 42.5567C21.9556 42.5825 22.0098 42.5932 22.0634 42.5872C22.1171 42.5813 22.1676 42.559 22.2082 42.5233V42.5267C22.4649 42.3 22.9282 41.9 23.1882 41.6833C23.2882 41.5967 23.2748 41.46 23.1882 41.3433H23.1915ZM20.6882 40.7733C20.4848 41.13 20.1615 41.35 19.8048 41.35C19.3148 41.35 19.0315 40.9767 19.0315 40.4267C19.0315 39.3433 20.0049 39.1467 20.9249 39.1467V39.4233C20.9249 39.92 20.9382 40.33 20.6882 40.7733ZM37.8882 42.54H36.6182C36.558 42.5367 36.5013 42.5108 36.4593 42.4676C36.4173 42.4244 36.3931 42.3669 36.3915 42.3067L36.3882 35.7733C36.394 35.7132 36.4223 35.6575 36.4674 35.6174C36.5126 35.5772 36.5711 35.5555 36.6315 35.5567H37.8115C37.8642 35.5581 37.9149 35.5768 37.9559 35.61C37.9968 35.6431 38.0258 35.6888 38.0382 35.74V36.74H38.0648C38.4215 35.8467 38.9182 35.42 39.7982 35.42C40.0916 35.4054 40.3836 35.4687 40.6447 35.6033C40.9057 35.738 41.1266 35.9392 41.2848 36.1867C41.6182 36.7133 41.6182 37.59 41.6182 38.2233V42.3367C41.6085 42.3946 41.5783 42.4471 41.5329 42.4845C41.4876 42.5219 41.4303 42.5416 41.3715 42.54H40.0948C40.0394 42.5376 39.9865 42.516 39.9451 42.4789C39.9038 42.4418 39.8766 42.3915 39.8682 42.3367V38.7867C39.8682 38.0733 39.9515 37.03 39.0748 37.03C38.7648 37.03 38.4782 37.2333 38.3382 37.55C38.1812 37.9425 38.1118 38.3646 38.1348 38.7867V42.3067C38.1322 42.37 38.105 42.4299 38.0589 42.4735C38.0129 42.517 37.9516 42.5409 37.8882 42.54ZM32.5248 35.42C34.4149 35.42 35.4348 37.0433 35.4348 39.1033C35.4348 41.0967 34.3082 42.68 32.5248 42.68C30.6715 42.68 29.6582 41.0567 29.6582 39.0367C29.6582 37.0033 30.6815 35.42 32.5248 35.42ZM32.5382 36.7533C31.5982 36.7533 31.5382 38.0333 31.5382 38.83C31.5382 39.6267 31.5249 41.33 32.5248 41.33C33.5115 41.33 33.5582 39.9567 33.5582 39.12C33.5582 38.57 33.5348 37.9067 33.3682 37.3867C33.2248 36.9333 32.9415 36.7533 32.5348 36.7533H32.5382ZM8.99818 42.54H7.72485C7.66729 42.538 7.61239 42.5153 7.57017 42.4761C7.52794 42.4369 7.50121 42.3839 7.49485 42.3267V35.7933C7.49485 35.66 7.60818 35.56 7.74152 35.56H8.92818C9.05152 35.5633 9.15152 35.66 9.16152 35.7767V36.63H9.18485C9.49152 35.8033 10.0748 35.42 10.8582 35.42C11.6548 35.42 12.1548 35.8033 12.5115 36.63C12.638 36.268 12.8764 35.9556 13.1922 35.7381C13.508 35.5205 13.8849 35.4091 14.2682 35.42C14.8015 35.42 15.3849 35.64 15.7415 36.1333C16.1482 36.6833 16.0648 37.4833 16.0648 38.1833V42.3067C16.0648 42.4367 15.9515 42.54 15.8182 42.54H14.5448C14.4844 42.5374 14.4272 42.5118 14.3851 42.4684C14.3429 42.4251 14.319 42.3672 14.3182 42.3067V38.84C14.3182 38.5667 14.3415 37.88 14.2815 37.62C14.1848 37.18 13.9015 37.0533 13.5315 37.0533C13.3663 37.0588 13.2063 37.1125 13.0712 37.2079C12.9361 37.3033 12.832 37.4361 12.7715 37.59C12.6382 37.9233 12.6548 38.47 12.6548 38.8433V42.3067C12.6548 42.44 12.5448 42.54 12.4082 42.54H11.1348C11.0747 42.5367 11.0179 42.5108 10.976 42.4676C10.934 42.4244 10.9098 42.3669 10.9082 42.3067V38.84C10.9082 38.1133 11.0248 37.04 10.1215 37.04C9.20818 37.04 9.24152 38.0867 9.24152 38.84V42.3067C9.24152 42.44 9.13151 42.54 8.99818 42.54ZM24.2615 36.71V35.7767C24.2615 35.7148 24.2861 35.6554 24.3299 35.6117C24.3736 35.5679 24.433 35.5433 24.4949 35.5433H28.6848C28.8182 35.5433 28.9248 35.6367 28.9248 35.7767V36.5767C28.9248 36.71 28.8115 36.8867 28.6115 37.1633L26.4449 40.26C27.2449 40.24 28.0982 40.36 28.8315 40.77C28.9948 40.8633 29.0382 41.0033 29.0515 41.1367V42.1333C29.0515 42.2667 28.9015 42.4267 28.7448 42.3467C28.0606 41.9946 27.3019 41.8115 26.5324 41.8126C25.7628 41.8138 25.0047 41.9992 24.3215 42.3533C24.1782 42.43 24.0248 42.2733 24.0248 42.1367V41.19C24.0248 41.04 24.0249 40.78 24.1815 40.55L26.6915 36.9467H24.5049C24.4737 36.9476 24.4426 36.9422 24.4135 36.9309C24.3844 36.9195 24.3579 36.9025 24.3355 36.8807C24.3132 36.859 24.2954 36.8329 24.2832 36.8042C24.2711 36.7754 24.2648 36.7445 24.2648 36.7133L24.2615 36.71ZM26.9882 43.9133C26.6815 43.5233 24.9682 43.73 24.1948 43.82C23.9615 43.85 23.9282 43.6467 24.1382 43.4967C25.5049 42.5367 27.7482 42.8133 28.0048 43.1367C28.2715 43.46 27.9382 45.7067 26.6549 46.78C26.4582 46.9467 26.2715 46.8567 26.3582 46.64C26.6482 45.92 27.2915 44.3067 26.9882 43.9133ZM25.9915 45.05C23.6015 46.8133 20.1382 47.75 17.1549 47.75C13.1688 47.7709 9.31846 46.3028 6.35818 43.6333C6.13485 43.4333 6.33485 43.1567 6.60485 43.31C9.89348 45.1905 13.6165 46.1787 17.4049 46.1767C20.0549 46.1767 22.9648 45.6267 25.6448 44.49C26.0482 44.3233 26.3882 44.7567 25.9915 45.05ZM77.7582 42.74C76.6182 42.74 75.7449 42.4267 75.1315 41.8033C74.5215 41.1767 74.2149 40.28 74.2149 39.1133C74.2149 37.92 74.5282 36.98 75.1515 36.3C75.7782 35.62 76.6449 35.28 77.7582 35.28C78.6115 35.28 79.2815 35.4867 79.7649 35.9C80.2482 36.3167 80.4882 36.8667 80.4882 37.5567C80.5051 37.863 80.4421 38.1685 80.3054 38.4431C80.1686 38.7178 79.9628 38.9522 79.7082 39.1233C79.1882 39.4733 78.4249 39.65 77.4149 39.65C76.8915 39.65 76.4349 39.6 76.0482 39.5C76.1049 40.1167 76.2915 40.5567 76.6082 40.8233C76.9249 41.09 77.4049 41.2233 78.0482 41.2233C78.3048 41.2233 78.5549 41.2067 78.7982 41.1733C79.0415 41.14 79.3815 41.0733 79.8115 40.96C79.8611 40.9438 79.9127 40.9348 79.9649 40.9333C80.1215 40.9333 80.1982 41.04 80.1982 41.25V41.8833C80.1982 42.0333 80.1782 42.1367 80.1382 42.1933C80.0745 42.2693 79.9899 42.325 79.8949 42.3533C79.2136 42.6125 78.4904 42.7436 77.7615 42.74H77.7582ZM77.3049 38.41C77.7715 38.41 78.1115 38.34 78.3249 38.1967C78.5349 38.0533 78.6415 37.8367 78.6415 37.5433C78.6415 36.9633 78.2949 36.6767 77.6082 36.6767C76.7249 36.6767 76.2149 37.2167 76.0749 38.3C76.4415 38.3733 76.8515 38.41 77.3049 38.41ZM62.5782 42.5333C62.4615 42.5333 62.3715 42.5067 62.3182 42.45C62.2615 42.3967 62.2349 42.3067 62.2349 42.19V35.8333C62.2349 35.7033 62.2615 35.6133 62.3182 35.5667C62.3715 35.5133 62.4615 35.49 62.5815 35.49H63.5715C63.7849 35.49 63.9115 35.59 63.9582 35.79L64.0682 36.1633C64.5549 35.8433 64.9949 35.6133 65.3848 35.48C65.7748 35.3467 66.1782 35.28 66.5915 35.28C67.4182 35.28 68.0015 35.5767 68.3415 36.1633C68.8082 35.85 69.2515 35.6267 69.6649 35.49C70.0782 35.35 70.5082 35.2833 70.9482 35.2833C71.5915 35.2833 72.0882 35.46 72.4449 35.8167C72.7982 36.1767 72.9749 36.68 72.9749 37.3233V42.19C72.9749 42.3067 72.9482 42.3967 72.8982 42.45C72.8482 42.5067 72.7582 42.5333 72.6315 42.5333H71.3049C71.1882 42.5333 71.0982 42.5067 71.0449 42.45C70.9882 42.3967 70.9615 42.3067 70.9615 42.19V37.7633C70.9615 37.1367 70.6815 36.8267 70.1215 36.8267C69.6215 36.8267 69.1215 36.9467 68.6182 37.1833V42.19C68.6182 42.31 68.5915 42.3967 68.5415 42.45C68.4915 42.5067 68.4015 42.5333 68.2749 42.5333H66.9515C66.8315 42.5333 66.7449 42.5067 66.6849 42.45C66.6315 42.3967 66.6049 42.31 66.6049 42.19V37.7633C66.6049 37.1367 66.3249 36.8267 65.7649 36.8267C65.2482 36.8267 64.7449 36.95 64.2482 37.1967V42.19C64.2482 42.31 64.2215 42.3967 64.1715 42.45C64.1215 42.5067 64.0315 42.5333 63.9049 42.5333H62.5782ZM59.5215 34.4C59.2147 34.4144 58.9141 34.3106 58.6815 34.11C58.5749 34.0097 58.4913 33.8873 58.4366 33.7515C58.3819 33.6157 58.3575 33.4696 58.3649 33.3233C58.3649 32.99 58.4682 32.73 58.6815 32.54C58.9139 32.3391 59.2147 32.2353 59.5215 32.25C59.8283 32.2356 60.1289 32.3394 60.3615 32.54C60.5749 32.73 60.6815 32.9933 60.6815 33.3233C60.6815 33.6533 60.5749 33.9167 60.3615 34.11C60.1289 34.3106 59.8283 34.4144 59.5215 34.4ZM58.8615 42.5333C58.7415 42.5333 58.6549 42.5067 58.5982 42.45C58.5415 42.3967 58.5149 42.31 58.5149 42.19V35.8333C58.5149 35.7033 58.5415 35.6133 58.5982 35.5667C58.6549 35.5133 58.7415 35.49 58.8615 35.49H60.1849C60.3115 35.49 60.4015 35.5133 60.4515 35.5633C60.5015 35.6133 60.5282 35.7033 60.5282 35.8333V42.19C60.5282 42.31 60.5015 42.3967 60.4515 42.45C60.4015 42.5067 60.3115 42.5333 60.1849 42.5333H58.8615ZM53.3515 42.5333C53.2315 42.5333 53.1449 42.5067 53.0882 42.45C53.0349 42.3967 53.0082 42.31 53.0082 42.19V35.8333C53.0082 35.7033 53.0349 35.6133 53.0882 35.5667C53.1449 35.5133 53.2315 35.49 53.3515 35.49H54.3449C54.5549 35.49 54.6849 35.59 54.7282 35.79L54.9082 36.5367C55.2024 36.191 55.5543 35.8989 55.9482 35.6733C56.27 35.5048 56.6283 35.4178 56.9915 35.42H57.1849C57.3115 35.42 57.4049 35.4467 57.4582 35.4967C57.5149 35.5467 57.5415 35.6367 57.5415 35.7633V36.9233C57.5415 37.0433 57.5149 37.13 57.4649 37.1833C57.4149 37.24 57.3249 37.2667 57.1982 37.2667C57.1147 37.266 57.0313 37.2615 56.9482 37.2533C56.8195 37.2434 56.6905 37.239 56.5615 37.24C56.3515 37.24 56.0948 37.27 55.7915 37.33C55.5264 37.3779 55.2672 37.4539 55.0182 37.5567V42.19C55.0182 42.31 54.9949 42.3967 54.9449 42.45C54.8915 42.5067 54.8015 42.5333 54.6749 42.5333H53.3515ZM45.0949 45.3733C44.9748 45.3733 44.8882 45.3467 44.8315 45.2967C44.7782 45.2467 44.7515 45.1567 44.7515 45.03V35.8333C44.7515 35.7033 44.7782 35.6133 44.8315 35.5667C44.8882 35.5133 44.9748 35.49 45.0949 35.49H46.0882C46.2982 35.49 46.4282 35.59 46.4715 35.79L46.5715 36.15C46.8604 35.8757 47.2001 35.6606 47.5715 35.5167C47.9496 35.3634 48.3536 35.2842 48.7615 35.2833C49.6515 35.2833 50.3615 35.6067 50.8782 36.26C51.3982 36.9133 51.6582 37.7933 51.6582 38.9067C51.6582 39.6733 51.5282 40.3367 51.2715 40.9067C51.0494 41.4329 50.6875 41.8883 50.2248 42.2233C49.78 42.5318 49.2494 42.6927 48.7082 42.6833C48.3419 42.6862 47.9777 42.6264 47.6315 42.5067C47.3127 42.3982 47.0183 42.2284 46.7649 42.0067V45.03C46.7649 45.1567 46.7382 45.2467 46.6882 45.2967C46.6348 45.3467 46.5482 45.3733 46.4182 45.3733H45.0949ZM48.1148 41.17C48.6282 41.17 49.0082 40.9933 49.2482 40.6467C49.4949 40.2967 49.6148 39.7467 49.6148 38.99C49.6148 38.2267 49.4982 37.6733 49.2582 37.3233C49.0182 36.9733 48.6382 36.8 48.1148 36.8C47.6385 36.7983 47.1707 36.9262 46.7615 37.17V40.7967C47.1684 41.0461 47.6376 41.1755 48.1148 41.17Z" fill="black"/>
</g>
<defs>
<clipPath id="clip0">
<rect width="80" height="80" fill="white" transform="translate(0.484863)"/>
</clipPath>
</defs>
</svg>
