<svg width="51" height="50" viewBox="0 0 51 50" fill="none" xmlns="http://www.w3.org/2000/svg">
<g clip-path="url(#clip0)">
<path d="M26.7177 21.7359C26.7177 23.2297 25.8067 24.0891 24.2005 24.0891H22.0911V19.3844H24.2099C25.8067 19.3844 26.7177 20.2344 26.7177 21.7359ZM30.8411 27.1703C30.8411 27.8906 31.4661 28.3594 32.4474 28.3594C33.6974 28.3594 34.6349 27.5703 34.6349 26.4578V25.7891L32.5942 25.9187C31.4395 25.9969 30.8411 26.4219 30.8411 27.1688V27.1703ZM50.4849 9.63594V40.1922C50.4844 41.2973 50.0453 42.357 49.2639 43.1384C48.4825 43.9198 47.4227 44.359 46.3177 44.3594H4.65048C3.5454 44.359 2.4857 43.9198 1.70429 43.1384C0.922882 42.357 0.483707 41.2973 0.483293 40.1922V9.63594C0.483707 8.53086 0.922882 7.47116 1.70429 6.68975C2.4857 5.90834 3.5454 5.46916 4.65048 5.46875H46.3177C47.4227 5.46916 48.4825 5.90834 49.2639 6.68975C50.0453 7.47116 50.4844 8.53086 50.4849 9.63594ZM11.5786 19.8953C12.3083 19.9562 13.0364 19.5312 13.4974 18.9922C13.9489 18.4359 14.2442 17.6906 14.1661 16.9344C13.5239 16.9609 12.7255 17.3594 12.2645 17.9156C11.8474 18.3937 11.4927 19.1656 11.5786 19.8953ZM16.8395 26.3625C16.8224 26.3453 15.138 25.7031 15.1208 23.7578C15.1036 22.1344 16.4489 21.3531 16.5099 21.3094C15.7458 20.1812 14.5645 20.0594 14.1567 20.0328C13.0974 19.9719 12.1942 20.6313 11.6911 20.6313C11.1786 20.6313 10.4145 20.0578 9.58173 20.0766C9.03801 20.091 8.50755 20.2476 8.04316 20.5308C7.57878 20.814 7.19666 21.2139 6.93486 21.6906C5.79736 23.6531 6.63954 26.5516 7.74267 28.1484C8.28017 28.9375 8.93173 29.8063 9.78329 29.7719C10.5895 29.7375 10.9114 29.2516 11.8833 29.2516C12.8645 29.2516 13.1427 29.7719 13.9927 29.7641C14.8786 29.7469 15.4255 28.975 15.9724 28.1844C16.5708 27.2812 16.8224 26.4141 16.8411 26.3609L16.8395 26.3625ZM28.5927 21.7281C28.5927 19.4187 26.9864 17.8391 24.6942 17.8391H20.2505V29.6797H22.0911V25.6344H24.6349C26.9614 25.6344 28.5927 24.0375 28.5927 21.7281ZM36.4052 23.7844C36.4052 22.075 35.0333 20.9719 32.9333 20.9719C30.9802 20.9719 29.5395 22.0922 29.4864 23.6187H31.1442C31.2833 22.8891 31.9599 22.4125 32.8802 22.4125C34.0083 22.4125 34.6333 22.9328 34.6333 23.9062V24.5578L32.3411 24.6969C30.2052 24.8266 29.052 25.7047 29.052 27.2234C29.052 28.7594 30.2411 29.775 31.9505 29.775C33.1052 29.775 34.1724 29.1938 34.6583 28.2641H34.6927V29.6875H36.3942V23.7844H36.4052ZM45.277 21.0844H43.4114L41.2505 28.0812H41.2161L39.0552 21.0844H37.1192L40.2349 29.7047L40.0708 30.225C39.7927 31.1109 39.3333 31.4578 38.5177 31.4578C38.3378 31.4545 38.158 31.4456 37.9786 31.4312V32.8547C38.0833 32.8891 38.5427 32.8984 38.6817 32.8984C40.4786 32.8984 41.3208 32.2125 42.0583 30.1375L45.277 21.0844Z" fill="black"/>
</g>
<defs>
<clipPath id="clip0">
<rect width="50" height="50" fill="white" transform="translate(0.484863)"/>
</clipPath>
</defs>
</svg>
