<svg width="66" height="66" viewBox="0 0 66 66" fill="none" xmlns="http://www.w3.org/2000/svg">
<circle cx="33" cy="33" r="33" fill="#0B2641"/>
<path d="M43.5121 25.886C42.1015 25.886 40.954 27.0335 40.954 28.4441C40.954 29.8547 42.1015 31.0022 43.5121 31.0022C44.9227 31.0022 46.0702 29.8547 46.0702 28.4441C46.0702 27.0335 44.9227 25.886 43.5121 25.886ZM43.5121 30.0061C42.6508 30.0061 41.9501 29.3054 41.9501 28.4441C41.9501 27.5828 42.6508 26.8821 43.5121 26.8821C44.3734 26.8821 45.0741 27.5828 45.0741 28.4441C45.0741 29.3054 44.3734 30.0061 43.5121 30.0061Z" fill="white"/>
<path d="M43.5121 29.1333C43.8928 29.1333 44.2014 28.8247 44.2014 28.4441C44.2014 28.0635 43.8928 27.7549 43.5121 27.7549C43.1315 27.7549 42.8229 28.0635 42.8229 28.4441C42.8229 28.8247 43.1315 29.1333 43.5121 29.1333Z" fill="white"/>
<path d="M19.0484 42.4224C17.6378 42.4224 16.4903 43.5699 16.4903 44.9805C16.4903 46.3911 17.6378 47.5386 19.0484 47.5386C20.459 47.5386 21.6065 46.3911 21.6065 44.9805C21.6065 43.5699 20.459 42.4224 19.0484 42.4224ZM19.0484 46.5425C18.1871 46.5425 17.4864 45.8418 17.4864 44.9805C17.4864 44.1192 18.1871 43.4185 19.0484 43.4185C19.9097 43.4185 20.6104 44.1192 20.6104 44.9805C20.6104 45.8418 19.9098 46.5425 19.0484 46.5425Z" fill="white"/>
<path d="M19.0484 45.6698C19.429 45.6698 19.7376 45.3612 19.7376 44.9806C19.7376 44.6 19.429 44.2914 19.0484 44.2914C18.6678 44.2914 18.3592 44.6 18.3592 44.9806C18.3592 45.3612 18.6678 45.6698 19.0484 45.6698Z" fill="white"/>
<path d="M26.1393 15.9738C24.7287 15.9738 23.5812 17.1213 23.5812 18.5319C23.5812 19.9425 24.7287 21.09 26.1393 21.09C27.5499 21.09 28.6974 19.9425 28.6974 18.5319C28.6974 17.1213 27.5499 15.9738 26.1393 15.9738ZM26.1393 20.0939C25.278 20.0939 24.5773 19.3931 24.5773 18.5319C24.5773 17.6706 25.278 16.9699 26.1393 16.9699C27.0005 16.9699 27.7013 17.6706 27.7013 18.5319C27.7013 19.3931 27.0005 20.0939 26.1393 20.0939Z" fill="white"/>
<path d="M26.1393 19.2212C26.52 19.2212 26.8285 18.9126 26.8285 18.532C26.8285 18.1513 26.52 17.8428 26.1393 17.8428C25.7587 17.8428 25.4501 18.1513 25.4501 18.532C25.4501 18.9126 25.7587 19.2212 26.1393 19.2212Z" fill="white"/>
<path d="M37.4591 42.0756H32.3016C32.0265 42.0756 31.8036 42.2985 31.8036 42.5736C31.8036 42.8487 32.0265 43.0717 32.3016 43.0717H37.4591C37.7342 43.0717 37.9572 42.8487 37.9572 42.5736C37.9572 42.2985 37.7342 42.0756 37.4591 42.0756Z" fill="white"/>
<path d="M37.4591 44.5469H32.3016C32.0265 44.5469 31.8036 44.7698 31.8036 45.0449C31.8036 45.32 32.0265 45.543 32.3016 45.543H37.4591C37.7342 45.543 37.9572 45.32 37.9572 45.0449C37.9572 44.7698 37.7342 44.5469 37.4591 44.5469Z" fill="white"/>
<path d="M37.4591 47.0182H32.3016C32.0265 47.0182 31.8036 47.2411 31.8036 47.5162C31.8036 47.7914 32.0265 48.0143 32.3016 48.0143H37.4591C37.7342 48.0143 37.9572 47.7914 37.9572 47.5162C37.9572 47.2411 37.7342 47.0182 37.4591 47.0182Z" fill="white"/>
<path d="M51.6645 24.3465H47.3052V21.1118C47.3052 20.9797 47.2527 20.853 47.1593 20.7596L40.0386 13.64C39.9453 13.5467 39.8186 13.4941 39.6865 13.4941H21.7716C21.4965 13.4941 21.2736 13.7171 21.2736 13.9922V37.4552H13.4981C13.2229 37.4552 13 37.6782 13 37.9533V52.0077C13 52.2828 13.2229 52.5057 13.4981 52.5057H41.3273C41.6024 52.5057 41.8253 52.2828 41.8253 52.0077V48.659H46.8072C47.0823 48.659 47.3052 48.4361 47.3052 48.1609V32.5418H51.6645C52.4009 32.5418 53 31.9426 53 31.2062V25.6822C53 24.9457 52.401 24.3465 51.6645 24.3465ZM40.1846 15.1945L45.6047 20.6137H40.1846V15.1945ZM40.8292 51.5097H13.9961V38.4514H40.8292V51.5097ZM46.3091 47.6629H41.8253V37.9533C41.8253 37.6782 41.6024 37.4552 41.3273 37.4552H22.2697V14.4903H39.1885V21.1118C39.1885 21.3869 39.4114 21.6099 39.6866 21.6099H46.3091V24.3465H40.7679C40.0315 24.3465 39.4324 24.9457 39.4324 25.6821V31.2062C39.4324 31.9426 40.0315 32.5417 40.7679 32.5417H46.3091V47.6629ZM52.0039 31.2062C52.0039 31.3934 51.8517 31.5457 51.6645 31.5457H40.7679C40.5807 31.5457 40.4285 31.3934 40.4285 31.2062V25.6822C40.4285 25.495 40.5807 25.3428 40.7679 25.3428H51.6645C51.8517 25.3428 52.0039 25.495 52.0039 25.6822V31.2062Z" fill="white"/>
<path d="M50.353 27.0864H47.1295C46.8544 27.0864 46.6314 27.3094 46.6314 27.5845C46.6314 27.8596 46.8544 28.0825 47.1295 28.0825H50.353C50.6281 28.0825 50.851 27.8596 50.851 27.5845C50.851 27.3094 50.6281 27.0864 50.353 27.0864Z" fill="white"/>
<path d="M50.353 28.8057H47.1295C46.8544 28.8057 46.6314 29.0286 46.6314 29.3037C46.6314 29.5788 46.8544 29.8018 47.1295 29.8018H50.353C50.6281 29.8018 50.851 29.5788 50.851 29.3037C50.851 29.0286 50.6281 28.8057 50.353 28.8057Z" fill="white"/>
<path d="M17.9865 36.5853C18.0469 36.8 18.2428 36.9482 18.4658 36.9482C18.6887 36.9482 18.8846 36.8 18.9451 36.5853L19.8506 33.3737C19.863 33.3297 19.8694 33.2842 19.8694 33.2385V16.3468C19.8694 16.0717 19.6464 15.8488 19.3713 15.8488H17.5602C17.2851 15.8488 17.0621 16.0717 17.0621 16.3468V33.2386C17.0621 33.2843 17.0684 33.3298 17.0809 33.3738L17.9865 36.5853ZM18.2182 33.7366H18.7134L18.4658 34.6149L18.2182 33.7366ZM18.8733 16.8449V32.7405H18.0583V16.8449H18.8733Z" fill="white"/>
<path d="M13.4981 36.9482H15.3092C15.5843 36.9482 15.8072 36.7252 15.8072 36.4501V19.5583C15.8072 19.5126 15.801 19.4672 15.7885 19.4231L14.8829 16.2115C14.8224 15.9969 14.6266 15.8486 14.4036 15.8486C14.1807 15.8486 13.9848 15.9969 13.9243 16.2115L13.0187 19.4231C13.0062 19.4672 13 19.5126 13 19.5583V36.4501C13 36.7251 13.2229 36.9482 13.4981 36.9482ZM13.9961 35.952V20.0564H14.8111V35.952H13.9961ZM14.6513 19.0603H14.1559L14.4036 18.182L14.6513 19.0603Z" fill="white"/>
</svg>
