<svg width="66" height="66" viewBox="0 0 66 66" fill="none" xmlns="http://www.w3.org/2000/svg">
<circle cx="33" cy="33" r="33" fill="#0B2641"/>
<path d="M16.3062 16.3063C16.2498 16.366 16.2052 16.436 16.175 16.5125C16.142 16.5873 16.125 16.6682 16.125 16.75C16.125 16.8318 16.142 16.9127 16.175 16.9875C16.2037 17.0648 16.2484 17.1351 16.3062 17.1938C16.4247 17.31 16.5841 17.375 16.75 17.375C16.9159 17.375 17.0753 17.31 17.1937 17.1938C17.3099 17.0753 17.375 16.916 17.375 16.75C17.375 16.5841 17.3099 16.4247 17.1937 16.3063C17.0729 16.1947 16.9145 16.1328 16.75 16.1328C16.5855 16.1328 16.4271 16.1947 16.3062 16.3063Z" fill="white"/>
<path d="M18.3875 16.175C18.3103 16.2037 18.24 16.2485 18.1813 16.3063C18.0651 16.4248 18 16.5841 18 16.75C18 16.916 18.0651 17.0753 18.1813 17.1938C18.2687 17.2819 18.3804 17.3421 18.5021 17.3665C18.6238 17.3909 18.7501 17.3785 18.8647 17.3309C18.9794 17.2833 19.0772 17.2026 19.1459 17.0992C19.2145 16.9957 19.2508 16.8742 19.25 16.75C19.2476 16.5846 19.1829 16.4261 19.0688 16.3063C18.9802 16.2208 18.8686 16.1628 18.7476 16.1395C18.6267 16.1162 18.5016 16.1286 18.3875 16.175Z" fill="white"/>
<path d="M20.2625 16.175C20.186 16.2052 20.116 16.2498 20.0563 16.3063C19.9401 16.4248 19.875 16.5841 19.875 16.75C19.875 16.916 19.9401 17.0753 20.0563 17.1938C20.1171 17.2489 20.1868 17.2933 20.2625 17.325C20.3377 17.3571 20.4184 17.374 20.5 17.375C20.5823 17.3759 20.664 17.3603 20.7402 17.3292C20.8164 17.298 20.8856 17.252 20.9438 17.1938C21.002 17.1356 21.048 17.0664 21.0792 16.9902C21.1103 16.914 21.1259 16.8323 21.125 16.75C21.1226 16.5846 21.0579 16.4261 20.9438 16.3063C20.8543 16.2221 20.7428 16.1651 20.6222 16.1418C20.5016 16.1186 20.3769 16.1301 20.2625 16.175Z" fill="white"/>
<path d="M31.125 24.875H22.375V26.125H31.125V24.875Z" fill="white"/>
<path d="M31.125 28.625H22.375V29.875H31.125V28.625Z" fill="white"/>
<path d="M34.25 32.375H22.375V33.625H34.25V32.375Z" fill="white"/>
<path d="M30.5 36.125H22.375V37.375H30.5V36.125Z" fill="white"/>
<path d="M27.375 39.875H22.375V41.125H27.375V39.875Z" fill="white"/>
<path d="M26.125 43.625H22.375V44.875H26.125V43.625Z" fill="white"/>
<path d="M49.3569 21.75C49.0425 21.7491 48.7311 21.8106 48.4406 21.931C48.1502 22.0514 47.8866 22.2282 47.665 22.4513L45.5 24.6163V16.125C45.5 15.6277 45.3025 15.1508 44.9508 14.7992C44.5992 14.4475 44.1223 14.25 43.625 14.25H16.125C15.6277 14.25 15.1508 14.4475 14.7992 14.7992C14.4475 15.1508 14.25 15.6277 14.25 16.125V49.875C14.25 50.3723 14.4475 50.8492 14.7992 51.2008C15.1508 51.5525 15.6277 51.75 16.125 51.75H43.625C44.1223 51.75 44.5992 51.5525 44.9508 51.2008C45.3025 50.8492 45.5 50.3723 45.5 49.875V31.3837L51.0487 25.835C51.3836 25.5004 51.6117 25.0741 51.7042 24.6098C51.7966 24.1456 51.7493 23.6643 51.5682 23.227C51.387 22.7897 51.0802 22.4159 50.6866 22.153C50.293 21.8901 49.8302 21.7498 49.3569 21.75ZM15.5 16.125C15.5 15.9592 15.5658 15.8003 15.6831 15.6831C15.8003 15.5658 15.9592 15.5 16.125 15.5H43.625C43.7908 15.5 43.9497 15.5658 44.0669 15.6831C44.1842 15.8003 44.25 15.9592 44.25 16.125V18H15.5V16.125ZM44.25 49.875C44.25 50.0408 44.1842 50.1997 44.0669 50.3169C43.9497 50.4342 43.7908 50.5 43.625 50.5H16.125C15.9592 50.5 15.8003 50.4342 15.6831 50.3169C15.5658 50.1997 15.5 50.0408 15.5 49.875V19.25H44.25V25.8663L40.5 29.6163V27.7413L33.8838 21.125H19.25V48.625H40.5V36.3838L44.25 32.6337V49.875ZM29.3287 40.7875L27.6369 45.8631L32.7125 44.1712L34.5088 42.375L39.25 37.6338V47.375H20.5V22.375H33V28.625H39.25V30.8663L31.125 38.9912L29.3287 40.7875ZM31.125 40.7588L32.7413 42.375L32.0375 43.0788L29.6131 43.8869L30.4212 41.4625L31.125 40.7588ZM34.25 23.2587L38.3662 27.375H34.25V23.2587ZM33.625 41.4912L32.0087 39.875L46.75 25.1337L48.3662 26.75L33.625 41.4912ZM50.165 24.9513L49.25 25.8663L47.6338 24.25L48.5487 23.335C48.654 23.2251 48.7802 23.1373 48.9198 23.0768C49.0595 23.0163 49.2098 22.9843 49.362 22.9827C49.5141 22.9811 49.6651 23.0098 49.806 23.0673C49.9469 23.1248 50.0749 23.2098 50.1825 23.3175C50.2902 23.4251 50.3752 23.5531 50.4327 23.694C50.4902 23.8349 50.5189 23.9859 50.5173 24.138C50.5157 24.2902 50.4837 24.4405 50.4232 24.5802C50.3627 24.7198 50.2749 24.846 50.165 24.9513Z" fill="white"/>
</svg>
