<svg width="66" height="66" viewBox="0 0 66 66" fill="none" xmlns="http://www.w3.org/2000/svg">
<circle cx="33" cy="33" r="33" fill="#0B2641"/>
<g clip-path="url(#clip0)">
<path d="M34.7461 50.6982C34.421 50.6982 34.1574 50.4346 34.1574 50.1095V48.5442C34.1574 48.3201 33.975 48.1376 33.7509 48.1376H32.1705C31.9464 48.1376 31.764 48.3201 31.764 48.5442V50.1095C31.764 50.4346 31.5004 50.6982 31.1753 50.6982C30.8502 50.6982 30.5866 50.4346 30.5866 50.1095V48.5442C30.5866 47.6709 31.2972 46.9603 32.1705 46.9603H33.7509C34.6242 46.9603 35.3348 47.6709 35.3348 48.5442V50.1095C35.3348 50.4346 35.0713 50.6982 34.7461 50.6982Z" fill="white"/>
<path d="M38.6205 29.18C38.4271 28.9187 38.0585 28.8638 37.7971 29.0571C37.5358 29.2506 37.4809 29.6193 37.6743 29.8805L40.5974 33.8286C40.9226 34.2677 40.899 34.9291 40.5438 35.3344L37.3945 38.9285H28.527L25.3776 35.3344C25.0225 34.9291 24.9989 34.2677 25.3241 33.8286L31.1276 25.9903V30.4566C30.3919 31.022 29.9619 31.8868 29.9619 32.8307C29.9619 34.4843 31.3072 35.8295 32.9607 35.8295C34.6143 35.8295 35.9596 34.4843 35.9596 32.8307C35.9596 31.9292 35.5585 31.0875 34.8724 30.5204V26.0963L36.165 27.8421C36.3585 28.1035 36.7271 28.1584 36.9884 27.965C37.2497 27.7715 37.3047 27.4028 37.1113 27.1415L34.5863 23.7312C34.1888 23.1944 33.5963 22.8865 32.9608 22.8865C32.3253 22.8865 31.7328 23.1944 31.3353 23.7312L24.3779 33.1281C23.7255 34.0093 23.7746 35.2914 24.4923 36.1104L27.1187 39.1077C26.4629 39.4135 26.007 40.0786 26.007 40.8487V43.6571C26.007 44.5168 26.575 45.2464 27.3555 45.4903L27.5161 50.1301C27.5271 50.4481 27.7883 50.6984 28.1041 50.6984C28.111 50.6984 28.1179 50.6983 28.1248 50.6981C28.4497 50.6868 28.7039 50.4143 28.6927 50.0894L28.5365 45.5773H37.4636L37.3074 50.0894C37.2962 50.4143 37.5505 50.6868 37.8753 50.6981C37.8822 50.6983 37.8892 50.6984 37.8961 50.6984C38.2117 50.6984 38.473 50.4481 38.484 50.1301L38.6455 45.4634C39.3848 45.1961 39.9146 44.4874 39.9146 43.6571V40.8487C39.9146 40.0786 39.4588 39.4135 38.8029 39.1077L41.4294 36.1104C42.147 35.2915 42.1962 34.0093 41.5437 33.1281L38.6205 29.18ZM32.9607 24.0637C33.223 24.0637 33.4643 24.1944 33.64 24.4317L33.6951 24.5061V30.8162C33.6951 31.0142 33.7947 31.1991 33.9601 31.3079C34.4749 31.6467 34.7823 32.216 34.7823 32.8305C34.7823 33.8349 33.9651 34.6521 32.9607 34.6521C31.9563 34.6521 31.1392 33.8349 31.1392 32.8305C31.1392 32.1868 31.4687 31.6035 32.0206 31.27C32.1971 31.1634 32.3049 30.9723 32.3049 30.7662V24.4032C32.4784 24.1847 32.7096 24.0637 32.9607 24.0637ZM38.7373 43.6569C38.7373 44.0665 38.404 44.3997 37.9945 44.3997H27.9271C27.5174 44.3997 27.1843 44.0665 27.1843 43.6569V40.8485C27.1843 40.439 27.5175 40.1057 27.9271 40.1057H37.9945C38.4041 40.1057 38.7373 40.439 38.7373 40.8485V43.6569Z" fill="white"/>
<path d="M21.2461 29.3604C21.3235 27.4954 21.8422 25.6694 22.7603 24.0513C22.9207 23.7685 22.8216 23.4092 22.5388 23.2488C22.256 23.0883 21.8967 23.1875 21.7363 23.4703C20.7188 25.2635 20.1467 27.2882 20.0679 29.3547C19.052 29.613 18.2984 30.5352 18.2984 31.6303C18.2984 32.9249 19.3516 33.9781 20.6462 33.9781C21.9408 33.9781 22.994 32.9249 22.994 31.6303C22.994 30.543 22.251 29.6263 21.2461 29.3604ZM20.6462 32.8008C20.0008 32.8008 19.4757 32.2757 19.4757 31.6303C19.4757 30.9849 20.0008 30.4598 20.6462 30.4598C21.2916 30.4598 21.8167 30.9849 21.8167 31.6303C21.8167 32.2757 21.2916 32.8008 20.6462 32.8008Z" fill="white"/>
<path d="M51.7536 15.3018H49.8619C49.1747 15.3018 48.6155 15.8609 48.6155 16.5481V16.9053H35.1922V16.5481C35.1922 15.8609 34.6331 15.3018 33.9459 15.3018H32.0541C31.3669 15.3018 30.8078 15.8609 30.8078 16.5481V16.9053H17.3845V16.5481C17.3845 15.8609 16.8253 15.3018 16.1381 15.3018H14.2464C13.5591 15.3018 13 15.8609 13 16.5481V18.4399C13 19.1271 13.5591 19.6863 14.2464 19.6863H16.1381C16.8253 19.6863 17.3845 19.1271 17.3845 18.4399V18.0827H27.6034C25.9691 18.8333 24.4939 19.9238 23.2824 21.3C23.0676 21.544 23.0912 21.9159 23.3353 22.1308C23.4471 22.2292 23.5858 22.2776 23.7241 22.2776C23.8873 22.2776 24.0498 22.2101 24.1661 22.0779C25.9068 20.1006 28.2453 18.7713 30.8078 18.2878V18.4399C30.8078 19.1272 31.3669 19.6863 32.0541 19.6863H33.9459C34.6331 19.6863 35.1922 19.1272 35.1922 18.4399V18.2877C40.5363 19.2946 44.5289 23.903 44.7545 29.3604C43.7493 29.626 43.006 30.5429 43.006 31.6305C43.006 32.9251 44.0592 33.9783 45.3538 33.9783C46.6484 33.9783 47.7016 32.9251 47.7016 31.6305C47.7016 30.5355 46.948 29.6133 45.9322 29.3549C45.7441 24.4032 42.7366 20.0805 38.3969 18.0828H48.6155V18.44C48.6155 19.1273 49.1747 19.6864 49.8619 19.6864H51.7536C52.4409 19.6864 53 19.1273 53 18.44V16.5481C53 15.8609 52.4409 15.3018 51.7536 15.3018ZM16.2072 18.4399C16.2072 18.4779 16.1762 18.5089 16.1381 18.5089H14.2464C14.2083 18.5089 14.1773 18.4779 14.1773 18.4399V16.5481C14.1773 16.5101 14.2083 16.4791 14.2464 16.4791H16.1381C16.1762 16.4791 16.2072 16.5101 16.2072 16.5481V18.4399ZM46.5243 31.6303C46.5243 32.2757 45.9992 32.8008 45.3538 32.8008C44.7084 32.8008 44.1833 32.2757 44.1833 31.6303C44.1833 30.9849 44.7084 30.4598 45.3538 30.4598C45.9992 30.4598 46.5243 30.9849 46.5243 31.6303ZM34.0149 18.4399C34.0149 18.4779 33.9839 18.5089 33.9459 18.5089H32.0541C32.0161 18.5089 31.9851 18.4779 31.9851 18.4399V16.5481C31.9851 16.5101 32.0161 16.4791 32.0541 16.4791H33.9459C33.9839 16.4791 34.0149 16.5101 34.0149 16.5481V18.4399ZM51.8227 18.4399C51.8227 18.4779 51.7917 18.5089 51.7536 18.5089H49.8619C49.8238 18.5089 49.7928 18.4779 49.7928 18.4399V16.5481C49.7928 16.5101 49.8238 16.4791 49.8619 16.4791H51.7536C51.7917 16.4791 51.8227 16.5101 51.8227 16.5481V18.4399Z" fill="white"/>
</g>
<defs>
<clipPath id="clip0">
<rect width="40" height="40" fill="white" transform="translate(13 13)"/>
</clipPath>
</defs>
</svg>
