<svg width="49" height="50" viewBox="0 0 49 50" fill="none" xmlns="http://www.w3.org/2000/svg">
<g clip-path="url(#clip0)">
<path d="M48.4576 11.2916C48.4756 11.3581 48.4848 11.4266 48.4848 11.4956V22.2092C48.4848 22.4891 48.3352 22.7476 48.0922 22.8868L39.1004 28.0643V38.3257C39.1004 38.463 39.0644 38.5979 38.9958 38.7169C38.9273 38.8358 38.8287 38.9347 38.7098 39.0035L19.9394 49.809C19.8964 49.8332 19.8496 49.8488 19.8027 49.8656C19.785 49.8713 19.7686 49.8821 19.75 49.887C19.6188 49.9216 19.4808 49.9216 19.3496 49.887C19.328 49.8814 19.3085 49.8694 19.2881 49.8617C19.2451 49.8459 19.2002 49.8323 19.1593 49.809L0.392614 39.0033C0.27336 38.9349 0.174269 38.8362 0.105337 38.7172C0.0364054 38.5982 7.10915e-05 38.4632 0 38.3257L0 6.18476C0 6.11431 0.00984848 6.04594 0.0272727 5.97965C0.0331439 5.95711 0.0467803 5.93666 0.0547348 5.91412C0.0693182 5.87321 0.0831439 5.83117 0.104545 5.7931C0.119129 5.76772 0.14053 5.74726 0.158144 5.72378C0.180682 5.69253 0.201136 5.66033 0.227462 5.63287C0.25 5.61052 0.279356 5.59386 0.304735 5.57435C0.333144 5.55086 0.358333 5.52548 0.39053 5.50692H0.391477L9.77519 0.104273C9.89402 0.0358884 10.0287 -0.000102997 10.1658 -0.000102997C10.3029 -0.000102997 10.4376 0.0358884 10.5564 0.104273L19.9402 5.50692H19.942C19.9733 5.52662 19.9998 5.55086 20.028 5.5734C20.0534 5.59291 20.0818 5.61052 20.1042 5.63211C20.1316 5.66033 20.1511 5.69272 20.1744 5.72378C20.1911 5.74726 20.2136 5.76772 20.2273 5.7931C20.2496 5.83211 20.2623 5.87321 20.278 5.91431C20.2858 5.93666 20.2994 5.95711 20.3053 5.9806C20.3233 6.04708 20.3326 6.11583 20.3328 6.18476V26.2594L28.1521 21.7569V11.4946C28.1521 11.4264 28.1619 11.3569 28.1795 11.2916C28.1864 11.2681 28.1991 11.2476 28.2068 11.2253C28.2225 11.1842 28.2362 11.142 28.2576 11.1041C28.2722 11.0787 28.2936 11.0582 28.3104 11.0348C28.3337 11.0035 28.3532 10.9713 28.3805 10.9439C28.4032 10.9215 28.4314 10.9048 28.4568 10.8853C28.4862 10.8618 28.5116 10.8365 28.5428 10.8179H28.5437L37.9284 5.41526C38.0472 5.34678 38.1819 5.31074 38.319 5.31074C38.4562 5.31074 38.5909 5.34678 38.7097 5.41526L48.0934 10.8179C48.1265 10.8374 48.1519 10.8618 48.1813 10.8842C48.2055 10.9039 48.2339 10.9215 48.2564 10.9429C48.2837 10.9713 48.3032 11.0035 48.3265 11.0348C48.3443 11.0582 48.3657 11.0787 48.3795 11.1041C48.4019 11.142 48.4146 11.1842 48.4301 11.2253C48.439 11.2476 48.4517 11.2681 48.4576 11.2916ZM46.9206 21.7571V12.848L43.6367 14.7384L39.1002 17.3505V26.2596L46.9216 21.7571H46.9206ZM37.5369 37.8736V28.9583L33.0744 31.5069L20.3318 38.7797V47.7785L37.5369 37.8732V37.8736ZM1.5642 7.53704V37.8736L18.7674 47.7778V38.7806L9.7803 33.6942L9.77746 33.6923L9.77367 33.6904C9.74337 33.6728 9.7178 33.6475 9.68958 33.6261C9.66496 33.6064 9.63674 33.5908 9.61534 33.5692L9.61345 33.5664C9.58807 33.542 9.57045 33.5117 9.54905 33.4844C9.52936 33.4579 9.50606 33.4355 9.49034 33.4082L9.48939 33.4052C9.47178 33.3761 9.46099 33.3408 9.4483 33.3077C9.43561 33.2783 9.41913 33.2509 9.41117 33.2198V33.2189C9.40152 33.1817 9.39962 33.1425 9.39564 33.1045C9.39186 33.0753 9.3839 33.0459 9.3839 33.0166V12.0397L4.84811 9.42643L1.5642 7.53817V7.53704ZM10.1669 1.6842L2.3483 6.18476L10.165 10.6851L17.9824 6.18363L10.165 1.6842H10.1669ZM14.2328 29.7709L18.7684 27.16V7.53704L15.4848 9.42757L10.9479 12.0395V31.6622L14.2328 29.7709ZM38.3189 6.99518L30.5015 11.4956L38.3189 15.9961L46.1354 11.4946L38.3191 6.99518H38.3189ZM37.5367 17.3505L33.0002 14.7384L29.7165 12.848V21.7571L34.2521 24.3683L37.5369 26.2596V17.3505H37.5367ZM19.5487 37.4274L31.0152 30.8812L36.747 27.61L28.9352 23.1124L19.9411 28.2904L11.7437 33.0098L19.5487 37.4274Z" fill="#222222"/>
</g>
<defs>
<clipPath id="clip0">
<rect width="48.4848" height="50" fill="white"/>
</clipPath>
</defs>
</svg>
