<svg width="158" height="30" viewBox="0 0 158 30" fill="none" xmlns="http://www.w3.org/2000/svg">
<path d="M0 11.5706C0 17.833 4.35388 22.2167 10.5268 22.2167C15.507 22.2167 19.2644 19.4433 20.4573 14.9105H14.8509C13.9861 16.6998 12.4056 17.5944 10.4672 17.5944C7.33598 17.5944 5.18887 15.2684 5.18887 11.5706C5.18887 7.87276 7.33598 5.54672 10.4672 5.54672C12.4056 5.54672 13.9861 6.44135 14.8509 8.23062H20.4573C19.2644 3.69781 15.507 0.894631 10.5268 0.894631C4.35388 0.894631 0 5.30815 0 11.5706Z" fill="#164BCC"/>
<path d="M28.6795 14.3439C28.6795 11.4811 30.0811 10.6461 32.4966 10.6461H33.8982V5.24851C31.6616 5.24851 29.8425 6.44135 28.6795 8.2008V5.42744H23.5801V22.0676H28.6795V14.3439Z" fill="#164BCC"/>
<path d="M43.9996 15.835L40.1527 5.42744H34.4569L41.2262 21.501L37.4091 29.9702H42.8962L53.3336 5.42744H47.8167L43.9996 15.835Z" fill="#164BCC"/>
<path d="M60.277 7.7833V5.42744H55.1776V30H60.277V19.7416C61.2015 21.1431 62.9609 22.3062 65.4062 22.3062C69.4917 22.3062 72.7422 18.9662 72.7422 13.7177C72.7422 8.46918 69.4917 5.18887 65.4062 5.18887C62.9609 5.18887 61.2015 6.32207 60.277 7.7833ZM67.5534 13.7177C67.5534 16.3718 65.8237 17.8628 63.8854 17.8628C61.9768 17.8628 60.2472 16.4016 60.2472 13.7475C60.2472 11.0934 61.9768 9.63221 63.8854 9.63221C65.8237 9.63221 67.5534 11.0636 67.5534 13.7177Z" fill="#164BCC"/>
<path d="M74.2843 5.21869H79.831V22.0676H84.9304V5.21869H90.4771V1.1332H74.2843V5.21869Z" fill="#164BCC"/>
<path d="M100.372 9.27435C102.072 9.27435 103.504 10.3181 103.504 12.1372H97.1219C97.4201 10.2883 98.7024 9.27435 100.372 9.27435ZM108.335 16.5507H102.907C102.49 17.4453 101.685 18.161 100.253 18.161C98.6129 18.161 97.271 17.1471 97.0921 14.9702H108.633C108.692 14.4632 108.722 13.9563 108.722 13.4791C108.722 8.40954 105.293 5.18887 100.432 5.18887C95.4817 5.18887 92.0225 8.46918 92.0225 13.7475C92.0225 19.0258 95.5414 22.3062 100.432 22.3062C104.577 22.3062 107.529 19.8012 108.335 16.5507Z" fill="#164BCC"/>
<path d="M111.412 22.0676H116.512V0H111.412V22.0676Z" fill="#164BCC"/>
<path d="M120.207 22.0676H125.307V0H120.207V22.0676Z" fill="#164BCC"/>
<path d="M136.338 9.27435C138.038 9.27435 139.469 10.3181 139.469 12.1372H133.088C133.386 10.2883 134.668 9.27435 136.338 9.27435ZM144.3 16.5507H138.873C138.456 17.4453 137.65 18.161 136.219 18.161C134.579 18.161 133.237 17.1471 133.058 14.9702H144.599C144.658 14.4632 144.688 13.9563 144.688 13.4791C144.688 8.40954 141.259 5.18887 136.398 5.18887C131.448 5.18887 127.988 8.46918 127.988 13.7475C127.988 19.0258 131.507 22.3062 136.398 22.3062C140.543 22.3062 143.495 19.8012 144.3 16.5507Z" fill="#164BCC"/>
<path d="M152.478 14.3439C152.478 11.4811 153.879 10.6461 156.295 10.6461H157.696V5.24851C155.46 5.24851 153.641 6.44135 152.478 8.2008V5.42744H147.378V22.0676H152.478V14.3439Z" fill="#164BCC"/>
</svg>
