<svg width="66" height="66" viewBox="0 0 66 66" fill="none" xmlns="http://www.w3.org/2000/svg">
<circle cx="33" cy="33" r="33" fill="#0B2641"/>
<path d="M35.8125 29.4062H30.1875C29.756 29.4062 29.4062 29.7561 29.4062 30.1875V35.8125C29.4062 36.2439 29.756 36.5938 30.1875 36.5938H35.8125C36.244 36.5938 36.5938 36.2439 36.5938 35.8125V30.1875C36.5938 29.7561 36.244 29.4062 35.8125 29.4062ZM35.0312 35.0312H30.9688V30.9688H35.0312V35.0312Z" fill="white"/>
<path d="M50.3438 17.2188C48.8791 17.2188 47.6875 18.4103 47.6875 19.875C47.6875 21.3397 48.8791 22.5312 50.3438 22.5312C51.8084 22.5312 53 21.3397 53 19.875C53 18.4103 51.8084 17.2188 50.3438 17.2188ZM50.3438 20.9688C49.7406 20.9688 49.25 20.4781 49.25 19.875C49.25 19.2719 49.7406 18.7812 50.3438 18.7812C50.9469 18.7812 51.4375 19.2719 51.4375 19.875C51.4375 20.4781 50.9469 20.9688 50.3438 20.9688Z" fill="white"/>
<path d="M46.3273 19.3203C46.182 19.1751 45.9804 19.0914 45.775 19.0914C45.5687 19.0914 45.3672 19.175 45.2218 19.3203C45.0765 19.4656 44.9937 19.6672 44.9937 19.8727C44.9937 20.0781 45.0765 20.2797 45.2218 20.425C45.3679 20.5703 45.5687 20.6539 45.775 20.6539C45.9804 20.6539 46.182 20.5703 46.3273 20.425C46.4726 20.2797 46.5562 20.0781 46.5562 19.8727C46.5562 19.6672 46.4726 19.4656 46.3273 19.3203Z" fill="white"/>
<path d="M45.4636 33.7812C45.7981 34.8659 46.8096 35.6562 48.0024 35.6562C49.4671 35.6562 50.6587 34.4647 50.6587 33C50.6587 31.5353 49.467 30.3438 48.0024 30.3438C46.8095 30.3438 45.798 31.1341 45.4636 32.2188H40.6563V26.125C40.6563 25.6936 40.3065 25.3438 39.875 25.3438H38.625V20.6539H43.0017C43.4332 20.6539 43.783 20.3041 43.783 19.8727C43.783 19.4413 43.4332 19.0914 43.0017 19.0914H37.8438C37.4123 19.0914 37.0625 19.4413 37.0625 19.8727V25.3438H33.7813V20.5365C34.8658 20.202 35.6563 19.1905 35.6563 17.9977C35.6563 16.533 34.4647 15.3414 33 15.3414C31.5353 15.3414 30.3438 16.533 30.3438 17.9977C30.3438 19.1905 31.1342 20.2021 32.2188 20.5365V25.3438H26.125C25.6935 25.3438 25.3438 25.6936 25.3438 26.125V27.375H20.6538V18.1958C21.7396 17.8621 22.5313 16.85 22.5313 15.6562C22.5313 14.1916 21.3397 13 19.875 13C18.4103 13 17.2188 14.1916 17.2188 15.6562C17.2188 16.8483 18.0081 17.8592 19.0913 18.1944V28.1562C19.0913 28.5877 19.4411 28.9375 19.8726 28.9375H25.3438V32.2188H20.5364C20.202 31.1341 19.1904 30.3438 17.9976 30.3438C16.5329 30.3438 15.3413 31.5353 15.3413 33C15.3413 34.4647 16.5329 35.6562 17.9976 35.6562C19.1905 35.6562 20.202 34.8659 20.5364 33.7812H25.3438V39.875C25.3438 40.3064 25.6935 40.6562 26.125 40.6562H27.375V45.3461H22.9983C22.5668 45.3461 22.217 45.6959 22.217 46.1273C22.217 46.5588 22.5668 46.9086 22.9983 46.9086H28.1563C28.5877 46.9086 28.9375 46.5588 28.9375 46.1273V40.6562H32.2188V45.4635C31.1342 45.798 30.3438 46.8095 30.3438 48.0023C30.3438 49.467 31.5353 50.6586 33 50.6586C34.4647 50.6586 35.6563 49.467 35.6563 48.0023C35.6563 46.8095 34.8658 45.7979 33.7813 45.4635V40.6562H39.875C40.3065 40.6562 40.6563 40.3064 40.6563 39.875V38.625H45.3462V47.8042C44.2604 48.1379 43.4688 49.15 43.4688 50.3438C43.4688 51.8084 44.6603 53 46.125 53C47.5897 53 48.7813 51.8084 48.7813 50.3438C48.7813 49.1517 47.992 48.1408 46.9087 47.8056V37.8438C46.9087 37.4123 46.5589 37.0625 46.1274 37.0625H40.6563V33.7812H45.4636ZM48.0024 31.9062C48.6056 31.9062 49.0962 32.3969 49.0962 33C49.0962 33.6031 48.6055 34.0938 48.0024 34.0938C47.3993 34.0938 46.9087 33.6031 46.9087 33C46.9087 32.3969 47.3993 31.9062 48.0024 31.9062ZM19.875 16.75C19.2719 16.75 18.7813 16.2594 18.7813 15.6562C18.7813 15.0531 19.2719 14.5625 19.875 14.5625C20.4781 14.5625 20.9688 15.0531 20.9688 15.6562C20.9688 16.2594 20.4781 16.75 19.875 16.75ZM17.9976 34.0938C17.3945 34.0938 16.9038 33.6031 16.9038 33C16.9038 32.3969 17.3945 31.9062 17.9976 31.9062C18.6007 31.9062 19.0913 32.3969 19.0913 33C19.0913 33.6031 18.6007 34.0938 17.9976 34.0938ZM31.9063 17.9977C31.9063 17.3945 32.3969 16.9039 33 16.9039C33.6031 16.9039 34.0938 17.3945 34.0938 17.9977C34.0938 18.6008 33.6031 19.0914 33 19.0914C32.3969 19.0914 31.9063 18.6008 31.9063 17.9977ZM34.0938 48.0023C34.0938 48.6055 33.6031 49.0961 33 49.0961C32.3969 49.0961 31.9063 48.6055 31.9063 48.0023C31.9063 47.3992 32.3969 46.9086 33 46.9086C33.6031 46.9086 34.0938 47.3992 34.0938 48.0023ZM39.0938 39.0938H26.9063V26.9062H39.0938V39.0938ZM46.125 49.25C46.7281 49.25 47.2188 49.7406 47.2188 50.3438C47.2188 50.9469 46.7281 51.4375 46.125 51.4375C45.5219 51.4375 45.0313 50.9469 45.0313 50.3438C45.0313 49.7406 45.5219 49.25 46.125 49.25Z" fill="white"/>
<path d="M15.6562 43.4688C14.1916 43.4688 13 44.6603 13 46.125C13 47.5897 14.1916 48.7812 15.6562 48.7812C17.1209 48.7812 18.3125 47.5897 18.3125 46.125C18.3125 44.6603 17.1209 43.4688 15.6562 43.4688ZM15.6562 47.2188C15.0531 47.2188 14.5625 46.7281 14.5625 46.125C14.5625 45.5219 15.0531 45.0312 15.6562 45.0312C16.2594 45.0312 16.75 45.5219 16.75 46.125C16.75 46.7281 16.2594 47.2188 15.6562 47.2188Z" fill="white"/>
<path d="M20.7789 45.575C20.6336 45.4297 20.432 45.3461 20.2266 45.3461C20.0211 45.3461 19.8195 45.4296 19.6742 45.575C19.5289 45.7202 19.4453 45.9218 19.4453 46.1273C19.4453 46.3328 19.5289 46.5344 19.6742 46.6796C19.8195 46.8249 20.0211 46.9086 20.2266 46.9086C20.432 46.9086 20.6336 46.825 20.7789 46.6796C20.9242 46.5344 21.0078 46.3328 21.0078 46.1273C21.0078 45.9218 20.9242 45.7202 20.7789 45.575Z" fill="white"/>
</svg>
